<?xml version="1.0" standalone="no"?>
<!DOCTYPE svg PUBLIC "-//W3C//DTD SVG 20010904//EN"
 "http://www.w3.org/TR/2001/REC-SVG-20010904/DTD/svg10.dtd">
<svg version="1.0" xmlns="http://www.w3.org/2000/svg"
 width="383.000000pt" height="265.000000pt" viewBox="0 0 383.000000 265.000000"
 preserveAspectRatio="xMidYMid meet">
<metadata>
Created by potrace 1.15, written by Peter Selinger 2001-2017
</metadata>
<g transform="translate(0.000000,265.000000) scale(0.100000,-0.100000)"
fill="#000000" stroke="none">
<path d="M2245 2461 c-47 -14 -152 -76 -201 -117 -46 -39 -51 -48 -45 -71 9
-33 27 -41 35 -15 18 57 212 172 290 172 42 0 47 -3 74 -42 65 -95 126 -254
112 -293 -4 -11 -1 -37 5 -60 29 -97 -45 -262 -149 -330 -34 -23 -83 1 -126
61 -29 41 -34 57 -37 113 -1 37 -3 68 -3 71 0 3 -9 20 -20 38 -17 27 -24 31
-35 22 -15 -13 -12 -84 7 -134 7 -16 11 -63 11 -105 0 -80 -22 -153 -65 -221
-22 -34 -22 -34 -25 -10 -35 317 -64 469 -101 525 -38 59 -95 125 -108 125 -6
0 -19 9 -29 20 -15 16 -26 19 -54 14 -55 -10 -162 -68 -200 -108 -38 -39 -45
-60 -30 -88 12 -22 41 -25 33 -3 -8 19 74 105 99 105 28 0 77 -53 71 -77 -4
-14 -12 -19 -28 -16 -26 5 -76 -46 -76 -76 0 -46 69 -66 111 -32 21 17 24 28
24 92 0 65 -2 74 -21 84 -12 6 -29 17 -38 24 -15 13 -15 15 5 29 12 8 40 19
62 23 90 16 154 -65 186 -236 22 -117 47 -297 56 -406 6 -78 -4 -93 -63 -91
-30 1 -43 9 -69 39 -41 48 -52 80 -56 168 -5 84 -41 164 -64 141 -13 -13 -12
-70 3 -98 24 -46 20 -181 -7 -255 -39 -105 -43 -105 -74 -6 -15 48 -41 135
-57 193 -16 58 -47 151 -69 207 -37 94 -44 104 -95 144 -78 60 -100 70 -142
63 -49 -8 -94 -36 -166 -104 -103 -97 -143 -177 -107 -213 13 -13 31 1 31 24
0 60 185 242 264 259 32 7 78 -11 123 -47 25 -20 78 -152 118 -293 15 -52 42
-146 61 -208 41 -135 41 -142 11 -142 -45 0 -78 64 -96 185 -19 123 -42 178
-70 161 -16 -10 -7 -110 13 -141 28 -43 27 -173 -3 -240 -45 -101 -81 -112
-130 -38 -32 49 -33 52 -35 148 -1 44 -8 71 -25 100 -37 62 -52 76 -66 65 -19
-15 -11 -79 19 -147 32 -77 32 -86 -2 -148 -37 -68 -58 -69 -100 -5 -17 27
-32 53 -33 57 0 5 -10 18 -21 30 -17 19 -187 495 -188 527 0 6 6 2 13 -9 16
-21 37 -13 32 13 -2 10 -15 36 -29 57 -14 21 -26 43 -26 50 0 18 -40 66 -50
60 -5 -3 -6 -22 -4 -43 5 -36 110 -377 141 -457 8 -22 39 -107 68 -190 29 -82
56 -159 61 -170 5 -14 -10 -5 -47 25 -126 106 -214 149 -313 154 -65 4 -82 1
-156 -30 -197 -80 -308 -179 -392 -349 -34 -69 -73 -187 -88 -265 -7 -36 -13
-72 -15 -80 -16 -88 -16 -102 0 -120 10 -11 30 -19 48 -18 34 0 301 119 492
219 61 32 173 86 250 120 77 34 175 79 218 100 l77 39 9 -23 c5 -12 19 -56 31
-97 32 -111 130 -385 242 -677 20 -53 52 -91 62 -75 11 18 -3 151 -28 260 -29
128 -137 423 -202 554 -24 48 -44 90 -44 93 0 14 377 191 387 181 2 -1 -15
-20 -38 -40 -42 -39 -46 -59 -13 -64 12 -2 34 13 59 38 21 22 44 40 50 40 6 0
22 -32 35 -71 l23 -71 -69 -69 -68 -69 21 -21 c19 -19 24 -20 59 -9 22 7 51
19 66 26 37 20 46 18 53 -14 11 -45 56 -124 117 -205 83 -109 116 -128 153
-87 17 19 18 22 2 37 -15 16 -18 15 -35 0 -30 -28 -46 -20 -97 46 -44 56 -125
219 -125 250 0 10 266 157 284 157 3 0 6 -5 6 -11 0 -6 27 -42 60 -79 74 -83
141 -119 213 -112 39 3 46 6 36 18 -7 9 -31 14 -66 14 -63 0 -113 22 -160 72
-28 29 -69 106 -61 113 38 33 387 141 514 159 40 6 42 4 55 -27 17 -42 89
-135 131 -168 50 -39 108 -43 179 -12 48 21 57 28 48 39 -15 19 -29 18 -80 -6
-103 -46 -167 -16 -233 109 -42 80 -47 74 77 90 182 25 341 2 499 -72 106 -50
228 -125 276 -170 21 -21 32 -26 32 -16 0 21 -53 177 -74 217 -30 58 -247 575
-243 578 18 12 158 58 205 67 64 13 77 24 49 41 -18 11 -130 -13 -209 -45 -26
-10 -52 -19 -58 -19 -6 0 -51 84 -101 186 -49 102 -108 216 -132 253 -51 78
-152 185 -167 176 -6 -4 -10 -93 -10 -244 0 -220 -2 -243 -24 -318 -23 -79
-77 -172 -113 -192 -26 -14 -99 17 -136 58 -40 44 -71 120 -87 212 -30 180
-124 387 -209 463 -22 20 -88 29 -126 17z m831 -142 c24 -36 88 -160 144 -275
l100 -209 -43 -14 c-23 -7 -98 -35 -167 -61 -147 -57 -269 -95 -277 -86 -4 3
-1 6 5 6 6 0 31 26 55 58 33 42 50 79 68 142 21 78 23 104 24 317 l0 232 24
-22 c13 -12 43 -52 67 -88z m-482 -549 c14 -58 28 -121 32 -141 l6 -37 -244
-80 c-133 -44 -255 -82 -270 -86 -38 -9 -37 12 3 67 52 71 87 171 83 237 -3
53 4 54 40 8 34 -46 72 -69 121 -75 25 -2 39 5 74 39 57 57 97 115 106 156 4
19 11 30 15 25 5 -4 20 -55 34 -113z m771 -47 c15 -38 49 -115 75 -173 26 -58
51 -116 55 -130 4 -14 30 -73 57 -132 27 -59 58 -137 68 -174 l20 -67 -28 24
c-27 25 -137 99 -146 99 -3 0 -27 13 -53 28 -168 97 -359 131 -572 102 -68 -9
-86 -9 -93 2 -12 19 -65 188 -71 229 l-5 35 86 32 c48 17 132 45 187 61 55 16
152 49 215 74 63 25 122 47 130 50 38 14 47 6 75 -60z m-691 -296 c21 -67 41
-127 43 -133 2 -7 -23 -15 -69 -22 -83 -13 -370 -93 -437 -123 -24 -10 -45
-19 -46 -19 -6 0 -44 126 -50 166 l-6 40 112 34 c62 18 141 35 176 38 52 4 61
7 52 18 -7 9 -34 14 -73 15 l-61 1 155 53 c85 29 157 54 160 54 3 0 22 -54 44
-122z m-663 -15 c27 3 47 2 42 -3 -4 -4 -51 -24 -103 -45 -52 -20 -117 -48
-143 -61 -56 -28 -71 -24 -39 10 29 30 72 142 72 184 l0 34 60 -62 60 -62 51
5z m-1084 -107 c54 -24 146 -85 200 -132 28 -24 73 -113 73 -144 0 -10 -177
-98 -350 -174 -47 -21 -155 -73 -240 -116 -212 -107 -410 -199 -427 -199 -12
0 -14 11 -10 53 3 28 10 65 16 80 6 16 11 41 11 58 0 44 63 202 117 291 77
128 182 213 351 282 72 29 91 33 145 29 34 -3 85 -15 114 -28z m1153 -7 c0
-13 13 -59 30 -102 16 -44 28 -81 27 -81 -28 -18 -278 -145 -286 -145 -17 0
-13 31 5 52 14 14 14 20 4 33 -7 9 -21 13 -30 10 -11 -4 -20 1 -23 12 -3 10
-12 39 -21 65 l-15 47 55 31 c64 37 211 99 237 100 11 0 17 -8 17 -22z m-861
-112 c31 -28 70 -12 99 42 13 23 27 42 32 42 5 0 18 -16 30 -35 11 -19 34 -45
49 -58 l29 -24 -103 -51 -103 -51 -29 42 c-26 35 -83 172 -83 195 0 4 13 -13
29 -38 15 -25 38 -54 50 -64z m91 -268 c47 -102 131 -320 160 -418 33 -110 60
-263 49 -274 -6 -6 -9 -5 -9 2 0 7 -36 108 -79 225 -67 181 -181 520 -181 541
0 3 5 6 11 6 6 0 28 -37 49 -82z"/>
</g>
</svg>
